<mxfile host="Electron" modified="2024-02-26T02:32:59.850Z" agent="Mozilla/5.0 (Windows NT 10.0; Win64; x64) AppleWebKit/537.36 (KHTML, like Gecko) draw.io/23.1.5 Chrome/120.0.6099.109 Electron/28.1.0 Safari/537.36" etag="8eX1ZmAUAjGTQU6EbLK_" version="23.1.5" type="device">
  <diagram name="Page-1" id="SO6VfxDL7d6g23iwDj6V">
    <mxGraphModel dx="975" dy="640" grid="1" gridSize="10" guides="1" tooltips="1" connect="1" arrows="1" fold="1" page="1" pageScale="1" pageWidth="850" pageHeight="1100" math="0" shadow="0">
      <root>
        <mxCell id="0" />
        <mxCell id="1" parent="0" />
        <mxCell id="RYdiBCdFx9FZNfR8fhlN-1" value="EMP" style="whiteSpace=wrap;html=1;align=center;" vertex="1" parent="1">
          <mxGeometry x="350" y="250" width="100" height="40" as="geometry" />
        </mxCell>
        <mxCell id="RYdiBCdFx9FZNfR8fhlN-2" value="&lt;span style=&quot;border-bottom: 1px dotted&quot;&gt;empNo&lt;/span&gt;" style="ellipse;whiteSpace=wrap;html=1;align=center;" vertex="1" parent="1">
          <mxGeometry x="120" y="50" width="100" height="40" as="geometry" />
        </mxCell>
        <mxCell id="RYdiBCdFx9FZNfR8fhlN-13" value="&lt;span style=&quot;border-bottom: 1px dotted&quot;&gt;empNo&lt;/span&gt;" style="ellipse;whiteSpace=wrap;html=1;align=center;" vertex="1" parent="1">
          <mxGeometry x="120" y="50" width="100" height="40" as="geometry" />
        </mxCell>
        <mxCell id="RYdiBCdFx9FZNfR8fhlN-16" value="" style="endArrow=none;html=1;rounded=0;entryX=0.25;entryY=0;entryDx=0;entryDy=0;" edge="1" parent="1" target="RYdiBCdFx9FZNfR8fhlN-1">
          <mxGeometry relative="1" as="geometry">
            <mxPoint x="210" y="80" as="sourcePoint" />
            <mxPoint x="350" y="190" as="targetPoint" />
          </mxGeometry>
        </mxCell>
        <mxCell id="RYdiBCdFx9FZNfR8fhlN-18" value="" style="endArrow=none;html=1;rounded=0;exitX=1;exitY=0.5;exitDx=0;exitDy=0;entryX=0;entryY=0;entryDx=0;entryDy=0;" edge="1" parent="1" source="RYdiBCdFx9FZNfR8fhlN-52" target="RYdiBCdFx9FZNfR8fhlN-1">
          <mxGeometry relative="1" as="geometry">
            <mxPoint x="218" y="169.68000000000006" as="sourcePoint" />
            <mxPoint x="470" y="230" as="targetPoint" />
          </mxGeometry>
        </mxCell>
        <mxCell id="RYdiBCdFx9FZNfR8fhlN-19" value="" style="endArrow=none;html=1;rounded=0;exitX=0.943;exitY=0.722;exitDx=0;exitDy=0;exitPerimeter=0;" edge="1" parent="1" source="RYdiBCdFx9FZNfR8fhlN-53" target="RYdiBCdFx9FZNfR8fhlN-1">
          <mxGeometry relative="1" as="geometry">
            <mxPoint x="219.99999999999864" y="240" as="sourcePoint" />
            <mxPoint x="470" y="230" as="targetPoint" />
          </mxGeometry>
        </mxCell>
        <mxCell id="RYdiBCdFx9FZNfR8fhlN-20" value="" style="endArrow=none;html=1;rounded=0;exitX=1;exitY=0.5;exitDx=0;exitDy=0;" edge="1" parent="1" source="RYdiBCdFx9FZNfR8fhlN-54" target="RYdiBCdFx9FZNfR8fhlN-1">
          <mxGeometry relative="1" as="geometry">
            <mxPoint x="210" y="310" as="sourcePoint" />
            <mxPoint x="470" y="230" as="targetPoint" />
          </mxGeometry>
        </mxCell>
        <mxCell id="RYdiBCdFx9FZNfR8fhlN-21" value="" style="endArrow=none;html=1;rounded=0;exitX=1;exitY=0.5;exitDx=0;exitDy=0;" edge="1" parent="1" source="RYdiBCdFx9FZNfR8fhlN-55" target="RYdiBCdFx9FZNfR8fhlN-1">
          <mxGeometry relative="1" as="geometry">
            <mxPoint x="197.42961800852072" y="393.2782007862493" as="sourcePoint" />
            <mxPoint x="470" y="230" as="targetPoint" />
          </mxGeometry>
        </mxCell>
        <mxCell id="RYdiBCdFx9FZNfR8fhlN-22" value="" style="endArrow=none;html=1;rounded=0;exitX=0.7;exitY=0.958;exitDx=0;exitDy=0;exitPerimeter=0;entryX=0.323;entryY=0.01;entryDx=0;entryDy=0;entryPerimeter=0;" edge="1" parent="1" target="RYdiBCdFx9FZNfR8fhlN-1">
          <mxGeometry relative="1" as="geometry">
            <mxPoint x="360" y="88.31999999999994" as="sourcePoint" />
            <mxPoint x="470" y="230" as="targetPoint" />
          </mxGeometry>
        </mxCell>
        <mxCell id="RYdiBCdFx9FZNfR8fhlN-23" value="" style="endArrow=none;html=1;rounded=0;exitX=0.5;exitY=1;exitDx=0;exitDy=0;entryX=0.617;entryY=0.009;entryDx=0;entryDy=0;entryPerimeter=0;" edge="1" parent="1" target="RYdiBCdFx9FZNfR8fhlN-1">
          <mxGeometry relative="1" as="geometry">
            <mxPoint x="520" y="70" as="sourcePoint" />
            <mxPoint x="470" y="230" as="targetPoint" />
          </mxGeometry>
        </mxCell>
        <mxCell id="RYdiBCdFx9FZNfR8fhlN-24" value="" style="endArrow=none;html=1;rounded=0;exitX=0.24;exitY=1.092;exitDx=0;exitDy=0;exitPerimeter=0;entryX=0.833;entryY=-0.008;entryDx=0;entryDy=0;entryPerimeter=0;" edge="1" parent="1" target="RYdiBCdFx9FZNfR8fhlN-1">
          <mxGeometry relative="1" as="geometry">
            <mxPoint x="614" y="93.67999999999995" as="sourcePoint" />
            <mxPoint x="470" y="230" as="targetPoint" />
          </mxGeometry>
        </mxCell>
        <mxCell id="RYdiBCdFx9FZNfR8fhlN-26" value="has" style="shape=rhombus;perimeter=rhombusPerimeter;whiteSpace=wrap;html=1;align=center;" vertex="1" parent="1">
          <mxGeometry x="350" y="340" width="100" height="40" as="geometry" />
        </mxCell>
        <mxCell id="RYdiBCdFx9FZNfR8fhlN-27" value="&lt;span style=&quot;border-bottom: 1px dotted&quot;&gt;Grade&lt;/span&gt;" style="ellipse;whiteSpace=wrap;html=1;align=center;" vertex="1" parent="1">
          <mxGeometry x="240" y="510" width="100" height="40" as="geometry" />
        </mxCell>
        <mxCell id="RYdiBCdFx9FZNfR8fhlN-29" value="" style="endArrow=none;html=1;rounded=0;entryX=0.5;entryY=0;entryDx=0;entryDy=0;exitX=0.5;exitY=1;exitDx=0;exitDy=0;" edge="1" parent="1" source="RYdiBCdFx9FZNfR8fhlN-1" target="RYdiBCdFx9FZNfR8fhlN-26">
          <mxGeometry relative="1" as="geometry">
            <mxPoint x="310" y="230" as="sourcePoint" />
            <mxPoint x="470" y="230" as="targetPoint" />
          </mxGeometry>
        </mxCell>
        <mxCell id="RYdiBCdFx9FZNfR8fhlN-31" value="" style="endArrow=none;html=1;rounded=0;exitX=0.693;exitY=-0.042;exitDx=0;exitDy=0;exitPerimeter=0;entryX=0.25;entryY=1;entryDx=0;entryDy=0;" edge="1" parent="1" source="RYdiBCdFx9FZNfR8fhlN-27" target="RYdiBCdFx9FZNfR8fhlN-69">
          <mxGeometry relative="1" as="geometry">
            <mxPoint x="310" y="390" as="sourcePoint" />
            <mxPoint x="470" y="390" as="targetPoint" />
          </mxGeometry>
        </mxCell>
        <mxCell id="RYdiBCdFx9FZNfR8fhlN-32" value="" style="endArrow=none;html=1;rounded=0;entryX=0.411;entryY=0.01;entryDx=0;entryDy=0;exitX=0.75;exitY=1;exitDx=0;exitDy=0;entryPerimeter=0;" edge="1" parent="1" source="RYdiBCdFx9FZNfR8fhlN-69" target="RYdiBCdFx9FZNfR8fhlN-56">
          <mxGeometry relative="1" as="geometry">
            <mxPoint x="310" y="390" as="sourcePoint" />
            <mxPoint x="510" y="480" as="targetPoint" />
          </mxGeometry>
        </mxCell>
        <mxCell id="RYdiBCdFx9FZNfR8fhlN-33" value="is" style="shape=rhombus;perimeter=rhombusPerimeter;whiteSpace=wrap;html=1;align=center;" vertex="1" parent="1">
          <mxGeometry x="490" y="245" width="80" height="50" as="geometry" />
        </mxCell>
        <mxCell id="RYdiBCdFx9FZNfR8fhlN-34" value="" style="endArrow=none;html=1;rounded=0;entryX=0;entryY=0.5;entryDx=0;entryDy=0;exitX=1;exitY=0.5;exitDx=0;exitDy=0;" edge="1" parent="1" source="RYdiBCdFx9FZNfR8fhlN-1" target="RYdiBCdFx9FZNfR8fhlN-33">
          <mxGeometry relative="1" as="geometry">
            <mxPoint x="450" y="280" as="sourcePoint" />
            <mxPoint x="610" y="280" as="targetPoint" />
          </mxGeometry>
        </mxCell>
        <mxCell id="RYdiBCdFx9FZNfR8fhlN-35" value="department" style="whiteSpace=wrap;html=1;align=center;" vertex="1" parent="1">
          <mxGeometry x="610" y="250" width="100" height="40" as="geometry" />
        </mxCell>
        <mxCell id="RYdiBCdFx9FZNfR8fhlN-37" value="" style="endArrow=none;html=1;rounded=0;exitX=1;exitY=0.5;exitDx=0;exitDy=0;entryX=0;entryY=0.5;entryDx=0;entryDy=0;" edge="1" parent="1" source="RYdiBCdFx9FZNfR8fhlN-33" target="RYdiBCdFx9FZNfR8fhlN-35">
          <mxGeometry relative="1" as="geometry">
            <mxPoint x="450" y="280" as="sourcePoint" />
            <mxPoint x="610" y="280" as="targetPoint" />
          </mxGeometry>
        </mxCell>
        <mxCell id="RYdiBCdFx9FZNfR8fhlN-39" value="&lt;b&gt;&lt;font style=&quot;font-size: 18px;&quot;&gt;HR-Worshop&lt;/font&gt;&lt;/b&gt;" style="text;strokeColor=none;fillColor=none;spacingLeft=4;spacingRight=4;overflow=hidden;rotatable=0;points=[[0,0.5],[1,0.5]];portConstraint=eastwest;fontSize=12;whiteSpace=wrap;html=1;" vertex="1" parent="1">
          <mxGeometry x="10" y="10" width="130" height="30" as="geometry" />
        </mxCell>
        <mxCell id="RYdiBCdFx9FZNfR8fhlN-40" value="name" style="ellipse;whiteSpace=wrap;html=1;align=center;" vertex="1" parent="1">
          <mxGeometry x="310" y="50" width="100" height="40" as="geometry" />
        </mxCell>
        <mxCell id="RYdiBCdFx9FZNfR8fhlN-41" value="gender" style="ellipse;whiteSpace=wrap;html=1;align=center;" vertex="1" parent="1">
          <mxGeometry x="460" y="30" width="100" height="40" as="geometry" />
        </mxCell>
        <mxCell id="RYdiBCdFx9FZNfR8fhlN-42" value="picture" style="ellipse;whiteSpace=wrap;html=1;align=center;" vertex="1" parent="1">
          <mxGeometry x="580" y="60" width="100" height="40" as="geometry" />
        </mxCell>
        <mxCell id="RYdiBCdFx9FZNfR8fhlN-43" value="dNo" style="ellipse;whiteSpace=wrap;html=1;align=center;fontStyle=4;" vertex="1" parent="1">
          <mxGeometry x="770" y="170" width="60" height="30" as="geometry" />
        </mxCell>
        <mxCell id="RYdiBCdFx9FZNfR8fhlN-44" value="name" style="ellipse;whiteSpace=wrap;html=1;align=center;" vertex="1" parent="1">
          <mxGeometry x="770" y="245" width="70" height="30" as="geometry" />
        </mxCell>
        <mxCell id="RYdiBCdFx9FZNfR8fhlN-45" value="ioc" style="ellipse;whiteSpace=wrap;html=1;align=center;" vertex="1" parent="1">
          <mxGeometry x="775" y="300" width="60" height="40" as="geometry" />
        </mxCell>
        <mxCell id="RYdiBCdFx9FZNfR8fhlN-46" value="" style="endArrow=none;html=1;rounded=0;exitX=1;exitY=1;exitDx=0;exitDy=0;" edge="1" parent="1" source="RYdiBCdFx9FZNfR8fhlN-35">
          <mxGeometry relative="1" as="geometry">
            <mxPoint x="615" y="319.47" as="sourcePoint" />
            <mxPoint x="775" y="319.47" as="targetPoint" />
          </mxGeometry>
        </mxCell>
        <mxCell id="RYdiBCdFx9FZNfR8fhlN-47" value="" style="endArrow=none;html=1;rounded=0;" edge="1" parent="1" source="RYdiBCdFx9FZNfR8fhlN-35">
          <mxGeometry relative="1" as="geometry">
            <mxPoint x="610" y="259.47" as="sourcePoint" />
            <mxPoint x="770" y="259.47" as="targetPoint" />
          </mxGeometry>
        </mxCell>
        <mxCell id="RYdiBCdFx9FZNfR8fhlN-48" value="" style="endArrow=none;html=1;rounded=0;exitX=1;exitY=0;exitDx=0;exitDy=0;entryX=0.065;entryY=0.718;entryDx=0;entryDy=0;entryPerimeter=0;" edge="1" parent="1" source="RYdiBCdFx9FZNfR8fhlN-35" target="RYdiBCdFx9FZNfR8fhlN-43">
          <mxGeometry relative="1" as="geometry">
            <mxPoint x="615" y="190" as="sourcePoint" />
            <mxPoint x="775" y="190" as="targetPoint" />
          </mxGeometry>
        </mxCell>
        <mxCell id="RYdiBCdFx9FZNfR8fhlN-50" value="insentive" style="ellipse;whiteSpace=wrap;html=1;align=center;" vertex="1" parent="1">
          <mxGeometry x="750" y="365" width="70" height="30" as="geometry" />
        </mxCell>
        <mxCell id="RYdiBCdFx9FZNfR8fhlN-51" value="" style="endArrow=none;html=1;rounded=0;exitX=0.75;exitY=1;exitDx=0;exitDy=0;" edge="1" parent="1" source="RYdiBCdFx9FZNfR8fhlN-35" target="RYdiBCdFx9FZNfR8fhlN-50">
          <mxGeometry relative="1" as="geometry">
            <mxPoint x="560" y="290" as="sourcePoint" />
            <mxPoint x="720" y="290" as="targetPoint" />
          </mxGeometry>
        </mxCell>
        <mxCell id="RYdiBCdFx9FZNfR8fhlN-52" value="DateOfBirth" style="ellipse;whiteSpace=wrap;html=1;align=center;" vertex="1" parent="1">
          <mxGeometry x="110" y="140" width="100" height="40" as="geometry" />
        </mxCell>
        <mxCell id="RYdiBCdFx9FZNfR8fhlN-53" value="Adress" style="ellipse;whiteSpace=wrap;html=1;align=center;" vertex="1" parent="1">
          <mxGeometry x="110" y="210" width="100" height="40" as="geometry" />
        </mxCell>
        <mxCell id="RYdiBCdFx9FZNfR8fhlN-54" value="Incentive" style="ellipse;whiteSpace=wrap;html=1;align=center;" vertex="1" parent="1">
          <mxGeometry x="110" y="290" width="100" height="40" as="geometry" />
        </mxCell>
        <mxCell id="RYdiBCdFx9FZNfR8fhlN-55" value="Languege" style="ellipse;whiteSpace=wrap;html=1;align=center;" vertex="1" parent="1">
          <mxGeometry x="100" y="380" width="100" height="40" as="geometry" />
        </mxCell>
        <mxCell id="RYdiBCdFx9FZNfR8fhlN-56" value="sal" style="ellipse;whiteSpace=wrap;html=1;align=center;" vertex="1" parent="1">
          <mxGeometry x="450" y="520" width="70" height="30" as="geometry" />
        </mxCell>
        <mxCell id="RYdiBCdFx9FZNfR8fhlN-58" value="User" style="rounded=1;arcSize=10;whiteSpace=wrap;html=1;align=center;" vertex="1" parent="1">
          <mxGeometry x="630" y="530" width="100" height="40" as="geometry" />
        </mxCell>
        <mxCell id="RYdiBCdFx9FZNfR8fhlN-59" value="user_id" style="ellipse;whiteSpace=wrap;html=1;align=center;fontStyle=4;" vertex="1" parent="1">
          <mxGeometry x="790" y="430" width="100" height="40" as="geometry" />
        </mxCell>
        <mxCell id="RYdiBCdFx9FZNfR8fhlN-60" value="name" style="ellipse;whiteSpace=wrap;html=1;align=center;" vertex="1" parent="1">
          <mxGeometry x="850" y="480" width="100" height="40" as="geometry" />
        </mxCell>
        <mxCell id="RYdiBCdFx9FZNfR8fhlN-61" value="tel" style="ellipse;whiteSpace=wrap;html=1;align=center;" vertex="1" parent="1">
          <mxGeometry x="870" y="550" width="100" height="40" as="geometry" />
        </mxCell>
        <mxCell id="RYdiBCdFx9FZNfR8fhlN-62" value="username" style="ellipse;whiteSpace=wrap;html=1;align=center;" vertex="1" parent="1">
          <mxGeometry x="830" y="600" width="100" height="40" as="geometry" />
        </mxCell>
        <mxCell id="RYdiBCdFx9FZNfR8fhlN-63" value="password" style="ellipse;whiteSpace=wrap;html=1;align=center;" vertex="1" parent="1">
          <mxGeometry x="800" y="660" width="100" height="40" as="geometry" />
        </mxCell>
        <mxCell id="RYdiBCdFx9FZNfR8fhlN-64" value="" style="endArrow=none;html=1;rounded=0;entryX=0;entryY=0.25;entryDx=0;entryDy=0;entryPerimeter=0;exitX=0.982;exitY=0.969;exitDx=0;exitDy=0;exitPerimeter=0;" edge="1" parent="1" source="RYdiBCdFx9FZNfR8fhlN-58" target="RYdiBCdFx9FZNfR8fhlN-63">
          <mxGeometry relative="1" as="geometry">
            <mxPoint x="740" y="570" as="sourcePoint" />
            <mxPoint x="550" y="580" as="targetPoint" />
          </mxGeometry>
        </mxCell>
        <mxCell id="RYdiBCdFx9FZNfR8fhlN-65" value="" style="endArrow=none;html=1;rounded=0;entryX=0;entryY=0.5;entryDx=0;entryDy=0;exitX=1;exitY=0.75;exitDx=0;exitDy=0;" edge="1" parent="1" source="RYdiBCdFx9FZNfR8fhlN-58" target="RYdiBCdFx9FZNfR8fhlN-62">
          <mxGeometry relative="1" as="geometry">
            <mxPoint x="740" y="550" as="sourcePoint" />
            <mxPoint x="830" y="680" as="targetPoint" />
          </mxGeometry>
        </mxCell>
        <mxCell id="RYdiBCdFx9FZNfR8fhlN-66" value="" style="endArrow=none;html=1;rounded=0;entryX=0;entryY=0.5;entryDx=0;entryDy=0;exitX=0.996;exitY=0.584;exitDx=0;exitDy=0;exitPerimeter=0;" edge="1" parent="1" source="RYdiBCdFx9FZNfR8fhlN-58" target="RYdiBCdFx9FZNfR8fhlN-61">
          <mxGeometry relative="1" as="geometry">
            <mxPoint x="750" y="590" as="sourcePoint" />
            <mxPoint x="840" y="720" as="targetPoint" />
          </mxGeometry>
        </mxCell>
        <mxCell id="RYdiBCdFx9FZNfR8fhlN-67" value="" style="endArrow=none;html=1;rounded=0;entryX=0;entryY=0.5;entryDx=0;entryDy=0;exitX=1.004;exitY=0.413;exitDx=0;exitDy=0;exitPerimeter=0;" edge="1" parent="1" source="RYdiBCdFx9FZNfR8fhlN-58" target="RYdiBCdFx9FZNfR8fhlN-60">
          <mxGeometry relative="1" as="geometry">
            <mxPoint x="730" y="550" as="sourcePoint" />
            <mxPoint x="850" y="730" as="targetPoint" />
          </mxGeometry>
        </mxCell>
        <mxCell id="RYdiBCdFx9FZNfR8fhlN-68" value="" style="endArrow=none;html=1;rounded=0;entryX=0;entryY=1;entryDx=0;entryDy=0;exitX=1.004;exitY=0.097;exitDx=0;exitDy=0;exitPerimeter=0;" edge="1" parent="1" source="RYdiBCdFx9FZNfR8fhlN-58" target="RYdiBCdFx9FZNfR8fhlN-59">
          <mxGeometry relative="1" as="geometry">
            <mxPoint x="730" y="530" as="sourcePoint" />
            <mxPoint x="860" y="740" as="targetPoint" />
          </mxGeometry>
        </mxCell>
        <mxCell id="RYdiBCdFx9FZNfR8fhlN-69" value="salary" style="rounded=1;arcSize=10;whiteSpace=wrap;html=1;align=center;" vertex="1" parent="1">
          <mxGeometry x="350" y="420" width="100" height="40" as="geometry" />
        </mxCell>
        <mxCell id="RYdiBCdFx9FZNfR8fhlN-70" value="" style="endArrow=none;html=1;rounded=0;exitX=0.5;exitY=1;exitDx=0;exitDy=0;entryX=0.5;entryY=0;entryDx=0;entryDy=0;" edge="1" parent="1" source="RYdiBCdFx9FZNfR8fhlN-26" target="RYdiBCdFx9FZNfR8fhlN-69">
          <mxGeometry relative="1" as="geometry">
            <mxPoint x="470" y="440" as="sourcePoint" />
            <mxPoint x="630" y="440" as="targetPoint" />
          </mxGeometry>
        </mxCell>
        <mxCell id="RYdiBCdFx9FZNfR8fhlN-72" value="M" style="text;strokeColor=none;fillColor=none;spacingLeft=4;spacingRight=4;overflow=hidden;rotatable=0;points=[[0,0.5],[1,0.5]];portConstraint=eastwest;fontSize=12;whiteSpace=wrap;html=1;" vertex="1" parent="1">
          <mxGeometry x="450" y="245" width="20" height="25" as="geometry" />
        </mxCell>
        <mxCell id="RYdiBCdFx9FZNfR8fhlN-73" value="M" style="text;strokeColor=none;fillColor=none;spacingLeft=4;spacingRight=4;overflow=hidden;rotatable=0;points=[[0,0.5],[1,0.5]];portConstraint=eastwest;fontSize=12;whiteSpace=wrap;html=1;" vertex="1" parent="1">
          <mxGeometry x="400" y="290" width="20" height="25" as="geometry" />
        </mxCell>
        <mxCell id="RYdiBCdFx9FZNfR8fhlN-74" value="1" style="text;strokeColor=none;fillColor=none;spacingLeft=4;spacingRight=4;overflow=hidden;rotatable=0;points=[[0,0.5],[1,0.5]];portConstraint=eastwest;fontSize=12;whiteSpace=wrap;html=1;" vertex="1" parent="1">
          <mxGeometry x="400" y="315" width="20" height="30" as="geometry" />
        </mxCell>
        <mxCell id="RYdiBCdFx9FZNfR8fhlN-75" value="1" style="text;strokeColor=none;fillColor=none;spacingLeft=4;spacingRight=4;overflow=hidden;rotatable=0;points=[[0,0.5],[1,0.5]];portConstraint=eastwest;fontSize=12;whiteSpace=wrap;html=1;" vertex="1" parent="1">
          <mxGeometry x="590" y="250" width="20" height="30" as="geometry" />
        </mxCell>
      </root>
    </mxGraphModel>
  </diagram>
</mxfile>
